<?xml version="1.0" standalone="no"?>
<!DOCTYPE svg PUBLIC "-//W3C//DTD SVG 20010904//EN"
 "http://www.w3.org/TR/2001/REC-SVG-20010904/DTD/svg10.dtd">
<svg version="1.0" xmlns="http://www.w3.org/2000/svg"
 width="512.000000pt" height="512.000000pt" viewBox="0 0 512.000000 512.000000"
 preserveAspectRatio="xMidYMid meet">

<g transform="translate(0.000000,512.000000) scale(0.100000,-0.100000)"
fill="#000000" stroke="none">
<path d="M2320 5109 c-837 -82 -1570 -557 -1988 -1287 -178 -310 -281 -637
-323 -1017 -15 -137 -6 -459 16 -605 87 -568 333 -1059 728 -1452 931 -926
2400 -1000 3422 -172 127 103 328 311 424 438 354 470 541 1053 517 1614 -24
566 -188 1036 -515 1472 -408 545 -1038 911 -1721 1000 -117 15 -444 21 -560
9z m-825 -1654 c141 -37 243 -113 297 -223 31 -62 33 -73 32 -167 0 -120 -22
-184 -92 -278 -93 -123 -240 -188 -391 -173 -92 10 -136 32 -136 71 0 32 -8
28 130 59 138 32 203 113 212 270 7 107 -7 163 -55 212 -55 57 -111 77 -227
82 -124 5 -199 -11 -334 -73 -98 -45 -161 -57 -161 -32 0 24 57 103 98 135 54
43 193 107 262 121 30 6 64 13 75 15 38 9 230 -4 290 -19z m1020 -14 c73 -41
90 -149 41 -257 -38 -84 -98 -163 -258 -340 -216 -241 -208 -228 -208 -315 0
-90 24 -149 72 -179 69 -44 212 -6 296 78 31 31 39 48 50 107 15 84 76 212
132 277 52 60 160 131 229 152 62 18 206 21 247 6 24 -9 31 -8 51 15 13 14 33
25 44 25 51 0 141 -71 160 -127 10 -30 7 -40 -31 -110 l-42 -76 -5 -141 c-6
-148 2 -202 29 -220 25 -15 58 7 166 109 l94 90 26 212 25 212 34 16 c19 9 58
19 87 22 45 5 56 2 80 -18 22 -20 29 -36 35 -90 10 -76 4 -122 -38 -278 -41
-156 -48 -223 -27 -256 14 -22 24 -25 70 -25 99 0 144 63 196 271 44 175 109
381 127 402 22 23 74 22 106 -3 14 -12 40 -49 57 -83 l30 -62 -14 -85 c-16
-92 -55 -245 -110 -435 -19 -66 -33 -121 -32 -123 6 -6 204 188 261 257 33 39
67 71 77 71 43 0 31 -99 -25 -205 -46 -88 -201 -240 -303 -299 l-82 -47 -27
-77 c-37 -105 -66 -153 -121 -201 -63 -56 -131 -75 -243 -69 -120 6 -202 53
-248 141 -22 43 -22 127 0 160 30 45 132 88 282 117 33 6 90 18 127 26 l67 15
15 69 c9 38 16 72 16 76 0 3 -18 -10 -39 -29 -70 -63 -95 -72 -206 -72 -89 0
-106 3 -156 27 -39 20 -61 38 -75 63 -10 19 -20 35 -21 35 -1 0 -31 -22 -67
-49 -79 -60 -158 -91 -231 -91 -41 0 -60 5 -74 19 -25 25 -47 67 -56 108 l-7
33 -50 -56 c-73 -79 -131 -106 -241 -112 -120 -6 -168 9 -233 72 -28 28 -54
58 -56 66 -4 11 -16 5 -51 -27 -91 -84 -190 -115 -322 -101 -142 14 -255 102
-292 228 -21 72 -13 307 16 431 72 318 226 564 400 641 87 40 186 43 246 9z
m-1341 -342 c-1 -91 -9 -155 -43 -319 -33 -167 -43 -241 -52 -400 -8 -138 -15
-202 -26 -218 -19 -30 -63 -48 -140 -57 -54 -6 -64 -4 -82 14 -19 19 -21 33
-21 145 0 224 73 535 179 760 51 111 136 203 176 192 6 -2 10 -49 9 -117z"/>
<path d="M2307 3270 c-36 -28 -96 -123 -128 -200 -26 -64 -72 -230 -66 -237 2
-1 40 46 85 105 45 59 104 136 132 172 52 67 76 126 65 160 -8 26 -54 26 -88
0z"/>
<path d="M3028 2841 c-140 -55 -243 -180 -269 -325 -19 -114 3 -185 66 -206
83 -28 191 45 238 160 8 19 18 82 22 140 4 58 12 138 19 178 12 70 12 72 -8
72 -12 -1 -42 -9 -68 -19z"/>
<path d="M3797 1901 c-60 -9 -114 -23 -122 -31 -33 -34 41 -100 112 -100 40 0
105 54 134 112 23 45 33 44 -124 19z"/>
</g>
</svg>
